<svg height="512" viewBox="0 0 60 60" width="512" xmlns="http://www.w3.org/2000/svg"><g id="Page-1" fill="none" fill-rule="evenodd"><g id="082---Broken-Website"><g id="Icons" transform="translate(1 1)"><path id="Path" d="m58 42.42v11.58c0 2.209139-1.790861 4-4 4h-50c-2.209139 0-4-1.790861-4-4v-11.58c.00011248-.5294098.21012419-1.0371779.584-1.412l3.706-3.715c.39255674-.3910716 1.02744326-.3910716 1.42 0l3.58 3.59c.1877666.1893127.44336246.2957983.71.2957983.2666375 0 .5222334-.1064856.71-.2957983l6.58-6.591c.3925567-.3910716 1.0274433-.3910716 1.42 0l4.581 4.591c.1877275.1890048.4431085.2952946.7095.2952946s.5217725-.1062898.7095-.2952946l2.58-2.589c.1877666-.1893127.4433625-.2957983.71-.2957983s.5222334.1064856.71.2957983l3.58 3.59c.1877666.1893127.4433625.2957983.71.2957983s.5222334-.1064856.71-.2957983l6.58-6.59c.3925567-.3910716 1.0274433-.3910716 1.42 0l6.581 6.591c.1877275.1890048.4431085.2952946.7095.2952946s.5217725-.1062898.7095-.2952946l2.579-2.589c.3926723-.3917362 1.0283277-.3917362 1.421 0l3.706 3.715c.3731429.3740858.5830944.8806299.584 1.409z" fill="#f5f5f5"/><path id="Path" d="m57.416 41.008-3.706-3.715c-.3926723-.3917362-1.0283277-.3917362-1.421 0l-.788.792 2.915 2.922c.3741205.3750674.5841523.8832437.584 1.413v11.58c0 2.209139-1.790861 4-4 4h3c2.209139 0 4-1.790861 4-4v-11.58c-.0001125-.5294098-.2101242-1.0371779-.584-1.412z" fill="#cfd8dc"/><path id="Path" d="m58 14v19.24c-.000623.2034042-.1229825.3866628-.3106118.4652053-.1876292.0785424-.4040501.0370988-.5493882-.1052053l-3.43-3.48c-.3930079-.3899779-1.0269921-.3899779-1.42 0l-2.58 2.59c-.3930079.3899779-1.0269921.3899779-1.42 0l-6.58-6.59c-.3930079-.3899779-1.0269921-.3899779-1.42 0l-6.58 6.59c-.3930079.3899779-1.0269921.3899779-1.42 0l-3.58-3.59c-.3930079-.3899779-1.0269921-.3899779-1.42 0l-2.58 2.59c-.3930079.3899779-1.0269921.3899779-1.42 0l-4.58-4.59c-.3930079-.3899779-1.0269921-.3899779-1.42 0l-6.58 6.59c-.3930079.3899779-1.02699206.3899779-1.42 0l-3.58-3.59c-.39300794-.3899779-1.02699206-.3899779-1.42 0l-3.44 3.44c-.14285015.1400599-.35543561.1814878-.54042423.105316-.18498862-.0761718-.30676574-.2552784-.30957577-.455316v-19.21z" fill="#f5f5f5"/><path id="Path" d="m55 14v17.429l2.14 2.171c.1453381.1423041.361759.1837477.5493882.1052053.1876293-.0785425.3099888-.2618011.3106118-.4652053v-19.24z" fill="#cfd8dc"/><path id="Path" d="m58 10v4h-58v-10h25c1.1032019.0032948 1.9967052.89679813 2 2v2c.0032948 1.10320187.8967981 1.9967052 2 2z" fill="#02a9f4"/><path id="Rectangle" d="m55 10h3v4h-3z" fill="#0377bc"/><path id="Path" d="m58 4v6h-29c-1.1032019-.0032948-1.9967052-.89679813-2-2v-2c-.0032948-1.10320187-.8967981-1.9967052-2-2h-25c0-2.209139 1.790861-4 4-4h50c2.209139 0 4 1.790861 4 4z" fill="#3f51b5"/><path id="Path" d="m54 0h-3c2.209139 0 4 1.790861 4 4v6h3v-6c0-2.209139-1.790861-4-4-4z" fill="#283593"/></g><g id="Icons_copy" fill="#000"><path id="Path" d="m17 9h-11c-.55228475 0-1 .44771525-1 1 0 .5522847.44771525 1 1 1h11c.5522847 0 1-.4477153 1-1 0-.55228475-.4477153-1-1-1z"/><path id="Path" d="m24.707 8.293c-.3904999-.39038194-1.0235001-.39038194-1.414 0l-.293.293-.293-.293c-.3923789-.37897221-1.0160848-.37355237-1.4018186.01218142-.3857338.3857338-.3911536 1.00943969-.0121814 1.40181858l.293.293-.293.293c-.2599566.2510745-.3642126.6228779-.2726972.9725073.0915155.3496295.3645604.6226744.7141899.7141899.3496294.0915154.7214328-.0127406.9725073-.2726972l.293-.293.293.293c.3923789.3789722 1.0160848.3735524 1.4018186-.0121814s.3911536-1.0094397.0121814-1.4018186l-.293-.293.293-.293c.3903819-.39049985.3903819-1.02350015 0-1.414z"/><circle id="Oval" cx="53" cy="6" r="1"/><circle id="Oval" cx="49" cy="6" r="1"/><circle id="Oval" cx="45" cy="6" r="1"/><g fill-rule="nonzero"><path id="Shape" d="m55.418 37.587c-.7937842-.7579715-2.0432158-.7579715-2.837 0l-2.581 2.59-6.582-6.591c-.7832848-.7809022-2.0507152-.7809022-2.834 0l-6.584 6.591-3.58-3.59c-.3755307-.3780735-.8871244-.5895563-1.42-.587-.5323841-.0010436-1.043033.2110666-1.418.589l-2.582 2.589-4.582-4.592c-.7933878-.7560637-2.0406122-.7560637-2.834 0l-6.584 6.591-3.58-3.589c-.37530122-.3785357-.88695731-.5904046-1.42-.588-.53190305-.0020883-1.04239141.2093843-1.417.587l-3.707 3.713c-.56336525.5613469-.87879352 1.3247121-.876 2.12v11.58c.00330612 2.7600532 2.23994685 4.9966939 5 5h50c2.7600532-.0033061 4.9966939-2.2399468 5-5v-11.58c.0022591-.7945953-.3131283-1.5571415-.876-2.118zm2.582 17.413c0 1.6568542-1.3431458 3-3 3h-50c-1.65685425 0-3-1.3431458-3-3v-11.58c-.0008273-.2648797.10431318-.5190893.292-.706l3.708-3.714 3.58 3.589c.37536514.3784405.8869794.590292 1.42.588.5316481.0017929 1.0419084-.2092252 1.417-.586l6.583-6.591 4.581 4.591c.3751595.3780161.8864265.5895127 1.419.587.5318466.0012918 1.0419663-.2108978 1.416-.589l2.584-2.589 3.58 3.59c.7935202.7566992 2.0414798.7566992 2.835 0l6.585-6.59 6.581 6.59c.7929067.75823 2.0420933.75823 2.835 0l2.584-2.59 3.706 3.715c.1881741.1863366.2940312.4401777.294.705z"/><path id="Shape" d="m55 0h-50c-2.76005315.00330612-4.99669388 2.23994685-5 5v29.207c-.0002751.6069046.36519139 1.1541716.92588276 1.3864611.56069136.2322896 1.20610845.1038228 1.63511724-.3254611l3.439-3.44 3.586 3.586c.7809997.7807639 2.0470003.7807639 2.828 0l6.586-6.586 4.586 4.586c.7809997.7807639 2.0470003.7807639 2.828 0l2.586-2.586 3.586 3.586c.7809997.7807639 2.0470003.7807639 2.828 0l6.586-6.586 6.586 6.586c.7809997.7807639 2.0470003.7807639 2.828 0l2.586-2.59 3.441 3.48c.4293241.4279833 1.0740552.5554778 1.633962.3231132.5599067-.2323646.9249096-.7789046.925038-1.3851132v-29.242c-.0033061-2.76005315-2.2399468-4.99669388-5-5zm-53 6h24c.5522847 0 1 .44771525 1 1v2c0 1.6568542 1.3431458 3 3 3h28v2h-56zm3-4h50c1.6568542 0 3 1.34314575 3 3v5h-28c-.5522847 0-1-.44771525-1-1v-2c0-1.65685425-1.3431458-3-3-3h-23.816c.42225455-1.19435087 1.54921457-1.99474861 2.816-2zm50.414 28.414c-.7809997-.7807639-2.0470003-.7807639-2.828 0l-2.586 2.586-6.586-6.586c-.7809997-.7807639-2.0470003-.7807639-2.828 0l-6.586 6.586-3.586-3.586c-.7809997-.7807639-2.0470003-.7807639-2.828 0l-2.586 2.586-4.586-4.586c-.791167-.755814-2.036833-.755814-2.828 0l-6.586 6.586-3.586-3.586c-.7809997-.7807639-2.0470003-.7807639-2.828 0l-2.586 2.586v-17h56v17.026z"/></g></g></g></g></svg>