<?xml version="1.0" encoding="UTF-8"?>
<svg id="Capa_1" xmlns="http://www.w3.org/2000/svg" xmlns:xlink="http://www.w3.org/1999/xlink" version="1.1" viewBox="0 0 512 512">
  <!-- Generator: Adobe Illustrator 29.5.1, SVG Export Plug-In . SVG Version: 2.1.0 Build 141)  -->
  <defs>
    <style>
      .st0 {
        fill: #7e7041;
      }

      .st1 {
        fill: #822027;
      }

      .st2 {
        fill: #e6ae37;
      }

      .st3 {
        fill: url(#linear-gradient);
      }

      .st4 {
        fill: #ff6a4f;
      }

      .st5 {
        fill: #948b52;
      }

      .st6 {
        stroke: #fff;
        stroke-miterlimit: 10;
        stroke-width: 2px;
      }

      .st7 {
        fill: #b66c6f;
      }

      .st8 {
        fill: #fff;
      }

      .st9 {
        fill: #d1362f;
      }

      .st10 {
        fill: #c4ab38;
      }

      .st11 {
        fill: #09f79c;
      }

      .st12 {
        fill: #be9316;
      }

      .st13 {
        fill: #d5c600;
      }

      .st14 {
        fill: #f2d956;
      }

      .st15 {
        fill: #ff7751;
      }

      .st16 {
        fill: #918652;
      }
    </style>
    <linearGradient id="linear-gradient" x1="259.9" y1="57.3" x2="257.2" y2="364.5" gradientUnits="userSpaceOnUse">
      <stop offset="0" stop-color="#ffad38"/>
      <stop offset="1" stop-color="#c59b1c"/>
    </linearGradient>
  </defs>
  <path class="st13" d="M16.6,441.9h0c0-4.5,1.2-9,3.4-13L234.6,50.2c4.8-8.5,13.8-13.8,23.6-13.8h0c9.8,0,18.8,5.3,23.7,13.8l213,378.8c2.2,3.9,3.4,8.4,3.4,12.9h0c0,14.5-11.8,26.3-26.3,26.3H42.9c-14.5,0-26.3-11.8-26.3-26.3Z"/>
  <g id="Generative_Object">
    <path class="st9" d="M454.6,357.3c-4.3-4-2.9-.7-5.8-.6s-10.2-1.5-11.4,1.2c-2.3-4.3-4.9-8.7-7.4-12.9s-5-9.7-6.8-11.1L269.7,59.1c-6.9-10.2-15.4-10.5-22.7-.6L91.6,334c-2.1,1.5-6.2,9.6-7.4,12.3-2.3,3-5.4,10.4-6.8,14.1-.5.7-2.8,2.3-3.1,3.7l-17.2-1.2c58.3-104.2,118.5-207.3,176.3-311.8,11.2-19.6,37.5-19.9,49.1-.6,56.6,102.7,114.9,204.4,172,306.9Z"/>
    <g>
      <path class="st3" d="M423.3,334c-2-1.5-11.2-3-11.7-3.4s-2.5-13.5-3.7-16.6c-15.8-41.9-54.1-4-45.5,23.3,1,3.2,8.1,11,8,11.7s-10.7,12.7-11.4,13.2c-8.8,6.1-16.5,4.9-20,19.4l-1.2,9.8c-.8-14.3-3.7-28.2-8-41.8-.6-1.8-4.9-9.3-4.9-9.8,0-1,5-10.4,5.5-13.5,3.6-19.9-5.2-20.4-9.2-33.2s-.8-15.4-2.5-21.5c29.4-4.5,41.9-45.9,25.2-68.2-16.5-21.9-46.7,2.3-58.7,17.5-17.4-7.3-38-7.8-55.3,0-14-18.4-51.3-43.2-63.6-9.5s3.2,54.6,30.1,60.8c-3,5.8-1.2,16.2-3.1,21.5-4.3,12.1-12.5,13.3-9.2,31.9.6,3.5,6.2,13.4,6.1,14.1s-6.9,14.7-8,18.4c-3.1,10.9-3.8,22.4-5.8,33.5.4-10.7-3.4-20.2-12.3-26.4-2-1.4-7.1-2.6-8.6-3.7-3.6-2.6-7.1-10.5-11.4-13.2,15.7-12.4,9.5-38.6-5.2-48.8-21.8-15.1-34.2,12.2-35.3,30.4-.4,1-10.6,2.8-12.3,4L247,58.5c7.3-9.9,15.8-9.6,22.7.6l153.6,274.9Z"/>
      <g>
        <g>
          <path class="st16" d="M169.6,385c4.3,35.7-56.4,67.7-82.9,44.2l-4.6-15.4c29.4,39.6,93,5.5,77.1-40.9l10.4,12Z"/>
          <path class="st15" d="M140.1,312.5c1.4,1.3,4.2,4,4.9,5.5,3.3,6.8,3.8,16.2-1.2,22.4s-7.5,1-12.9-2.8c-6.9-9.2-7-29.8,9.2-25.2Z"/>
          <path class="st14" d="M145,318c-.8-1.6-3.5-4.3-4.9-5.5-2.7-2.4-5.3-5.1-9.2-5.5,1.5-2.2-2.4-3.8-4-3.7-9.6.5-16.5,29.7-15.1,37.8-13.7,2.1-25.8,8.4-34.4,19.4,1.4-3.8,4.4-11.2,6.8-14.1,5.6-7.2,16.9-9,25.2-10.8-.2-25.5,19.1-52.6,35.6-17.5Z"/>
          <path class="st4" d="M130.9,307c3.9.4,6.5,3.1,9.2,5.5-16.2-4.6-16.2,15.9-9.2,25.2-1.2-.9-5.6-2.3-5.8-2.5-4.8-4.1-1.9-24,4-28.3.6,0,1.3,0,1.8,0Z"/>
          <g>
            <path class="st10" d="M130.9,307c-.6,0-1.3,0-1.8,0-10.8,1.1-13.2,23.8-9.8,31.9s-.6,1.9.9,3.1,7.5,2.7,9.8,4.3c5.2,3.4,10,7.4,14.4,11.7,2.1,2.2,6.5,8.8,8.3,9.8,8.7,5.1,15.2,2.9,16.9,17.2l-10.4-12c15.9,46.3-47.7,80.4-77.1,40.9l4.6,15.4c-10.3-9.1-4.8-13.4-5.5-23,0-1.2-4.1-9.6-4.9-13.2-1.5-6.6-3.1-21.9-1.8-28.3s0-.4,0-.6c.3-1.4,2.6-3,3.1-3.7,8.6-11,20.7-17.2,34.4-19.4-1.5-8,5.5-37.2,15.1-37.8,1.6,0,5.5,1.5,4,3.7Z"/>
            <path class="st14" d="M144.4,358c-4.5-4.3-9.3-8.2-14.4-11.7-2.3-1.6-8.2-3-9.8-4.3s-.6-2.2-.9-3.1c11.6,2.3,17.9,11.2,25.2,19Z"/>
            <path class="st14" d="M76.2,393c-3.9-7.8-6.5-20.2-1.8-28.3-1.3,6.4.3,21.6,1.8,28.3Z"/>
            <path class="st11" d="M149.3,404c-.9,5.9-9.3,12.4-15.1,10.4s-3.4-4.9-3.4-5.2c0-.5,4.5-6.1,4.9-8.6,3.3-22.4-38.6,2.8-16.9,9.5s11.9-1,11.4,5.8-12.8,9.4-18.4,5.8c-8.4-5.3-7-18.9-1.8-26.1,10.7-14.9,37.5-12.6,39.3,8.3Z"/>
            <path class="st1" d="M149.3,404c.8,8.8-2.5,11.8-10.8,14.1s-4.6-.7-4.9-.6c-2,.5-12.2,18.4-21.8,4.3,5.6,3.6,17.9,1,18.4-5.8s-7.5-4.6-11.4-5.8c-21.7-6.7,20.2-31.9,16.9-9.5s-4.9,8.1-4.9,8.6,2.7,5,3.4,5.2c5.8,2,14.1-4.6,15.1-10.4Z"/>
            <g>
              <path class="st1" d="M85.7,373.9c9.8-2.6,19.4,20.5,10.4,22.7s-19.5-20.4-10.4-22.7Z"/>
              <path class="st8" d="M88.2,377c4.1-1.4,6.7,5.7,3.7,6.8s-7.3-5.6-3.7-6.8Z"/>
            </g>
            <g>
              <path class="st1" d="M123.8,353.7c9.7-2.1,19.2,18.6,11.1,22.1-10.2,4.4-20.9-20-11.1-22.1Z"/>
              <path class="st8" d="M123.2,358c4.8-1.6,6.1,6.6,3.1,7.4s-6.9-6.1-3.1-7.4Z"/>
            </g>
          </g>
        </g>
        <g>
          <g>
            <path class="st1" d="M423.3,334c1.8,1.3,5.4,8.7,6.8,11.1-7.1-5.8-15.8-7.9-24.6-9.5.7-25.1-19.8-52.9-35-17.5-4,7-4.5,14.8,0,21.8s6.2,3,12.3-.9,8.3-2.9,9.2-7.7c1.4-7.9-.5-19.5-6.8-24.9,11.2.3,13.6,24.3,10.4,32.6-10.6,3.3-19.8,11-25.8,20.3-2.5,2.3-4.7,6.8-6.5,8-6.8,4.6-16.3,3.7-18.1,16.6-5,36.1,56.6,69.4,82.9,45.5,10.8-9.9,5-13.6,6.1-23.7s3.1-6.3,3.7-8.3c3.3-11.2,8.1-21.5,2.5-32.6-.8-1.6-.8-1.6-1.8-3.1-.3-.9-.8-3-1.2-3.7,1.1-2.8,8.2-1.2,11.4-1.2s1.5-3.4,5.8.6c8.1,14.5,40.8,66.6,43,78.3,2.8,14.9-6.6,28.5-21.2,31.6l-440.5-.6c-13.3-4.4-21.2-17.1-18.7-31s32.5-59.5,39.9-72.8l17.2,1.2c0,.2,0,.4,0,.6-4.6,8.1-2,20.4,1.8,28.3.8,3.6,4.8,12,4.9,13.2.7,9.6-4.8,13.9,5.5,23,26.5,23.5,87.3-8.6,82.9-44.2-1.7-14.3-8.2-12.1-16.9-17.2-1.8-1.1-6.2-7.6-8.3-9.8-7.3-7.9-13.6-16.7-25.2-19-3.4-8.1-1-30.8,9.8-31.9-5.9,4.2-8.8,24.1-4,28.3s4.6,1.6,5.8,2.5c5.4,3.8,8,8.8,12.9,2.8s4.6-15.6,1.2-22.4c-16.5-35.1-35.8-8-35.6,17.5-8.3,1.8-19.6,3.6-25.2,10.8,1.1-2.7,5.3-10.8,7.4-12.3s11.8-3,12.3-4c1.1-18.2,13.5-45.5,35.3-30.4,14.8,10.2,20.9,36.4,5.2,48.8,4.3,2.7,7.8,10.6,11.4,13.2s6.6,2.3,8.6,3.7c8.9,6.2,12.7,15.7,12.3,26.4,2.1-11.1,2.7-22.6,5.8-33.5s8-17.4,8-18.4-5.5-10.6-6.1-14.1c-3.3-18.6,4.9-19.8,9.2-31.9s0-15.7,3.1-21.5c-26.9-6.3-39.2-36-30.1-60.8s49.6-8.9,63.6,9.5c17.3-7.8,37.8-7.3,55.3,0,12-15.2,42.2-39.4,58.7-17.5,16.7,22.2,4.2,63.7-25.2,68.2,1.7,6.1.7,16,2.5,21.5,4,12.8,12.8,13.3,9.2,33.2s-5.6,12.6-5.5,13.5,4.4,8.1,4.9,9.8c4.3,13.6,7.2,27.5,8,41.8l1.2-9.8c3.5-14.5,11.2-13.2,20-19.4.7-.5,11.3-12.3,11.4-13.2s-7-8.5-8-11.7c-8.7-27.4,29.6-65.2,45.5-23.3,1.2,3.1,3.1,16,3.7,16.6s9.7,1.9,11.7,3.4Z"/>
            <g>
              <path class="st12" d="M66.7,393c3.1,0,7.6,12.3,7.7,15.7s-2.2,6.6-3.1,9.8c-3.1,11.3-6.7,21.6-5.5,33.8-11.3,0-38.1,5.1-33.2-14.7.6-2.4,21.6-40.2,23.3-41.8s9.2-2.8,10.8-2.8Z"/>
              <path class="st12" d="M446.3,393c4.1,1.5,9.7.1,12.6,2.8s23.5,40.6,24,43c3.1,18.1-23.2,14.2-33.8,12.9,4.1-21.7-15.6-38.8-2.8-58.7Z"/>
              <g>
                <g>
                  <path class="st14" d="M180.6,452c-15.6,2-36.1.7-52.2.6l6.1-8.6c4.7-1.6,9.1-6.1,14.7-6.8,12.4-1.5,23.9,5.2,31.3,14.7Z"/>
                  <path class="st5" d="M177,408.9c1.5,14.7,3.6,29,7.7,43-.9.6-3.8,0-4,0-7.4-9.5-18.9-16.3-31.3-14.7,11.4-7.2,20.5-16.8,27.6-28.3Z"/>
                  <path class="st0" d="M177,408.9c-7.1,11.5-16.2,21-27.6,28.3-5.6.7-10,5.1-14.7,6.8s-11.4,3.3-15.1,3.7-20.6-1.1-21.5-.6-1.1,4.5-.9,5.5c-.9,0-3.9.3-4.3-.3-.7-1,.8-11.5,2.2-12,24.3,8.2,53.3-2.1,69.1-21.8,2.7-3.3,9.7-18.6,10.8-18.7,3.1-.5,2,7.3,2.2,9.2Z"/>
                  <path class="st5" d="M134.6,444l-6.1,8.6c-10.2,0-21.3,1-31.3,0-.2-1,.3-5.2.9-5.5.9-.5,17.8,1,21.5.6s11.5-2.4,15.1-3.7Z"/>
                  <path class="st16" d="M87.9,445.2c-.1,1.5.7,6.7-.9,7.4-4.2-.3-8.5.7-12.6-.6,0-6.1.3-12.9,3.1-18.4,2,4.2,7,8.6,10.4,11.7Z"/>
                  <path class="st0" d="M87.9,445.2c-3.5-3.1-8.4-7.5-10.4-11.7s-.4-4.2-1.8-4.9c.3-.5-.6-2,.9-1.8.4,3.7,11.7,10.6,12,11.4.6,1.6-.4,5.2-.6,7.1Z"/>
                  <path class="st10" d="M77.4,433.5c-2.8,5.5-3,12.4-3.1,18.4-.5-.2-.9,1.3-1.8-.3,0-7.1-.3-16.6,3.1-23,1.4.8,1.5,4.3,1.8,4.9Z"/>
                  <path class="st15" d="M65.5,379.5c2.9,5.7,2.1,8.3-4.3,9.2l4.3-9.2Z"/>
                </g>
                <g>
                  <g>
                    <path class="st14" d="M365.6,437.2c3.8.4,11.7,4.3,14.7,6.8s5.7,5.9,6.8,8.6c-17.3.2-35,.8-52.2-.6,7.1-9.3,18.5-16.1,30.7-14.7Z"/>
                    <path class="st16" d="M365.6,437.2c-12.2-1.4-23.6,5.4-30.7,14.7-1.1,0-4.3,1.5-4.9-.3,4.9-13.7,6.8-28.3,8.6-42.7,6.9,11.7,15.8,20.7,27,28.3Z"/>
                    <path class="st0" d="M418.4,452c-1.1-1.1-.3-2.8-.6-3.7-1.2-3.2-2.2-.6-4.6-.6-11.6,0-21.7.2-32.9-3.7-3.1-2.5-10.9-6.3-14.7-6.8-11.3-7.5-20.2-16.5-27-28.3.1-.9-1.1-10.4,2.2-9.2,11.5,31.8,47.2,50.9,79.9,40.5,1.9,3.5,1.5,7.5,1.5,11.4-1.3,2-2.4.1-3.7.3Z"/>
                    <path class="st5" d="M440.5,452.6c-2.9.7-9.2-1-12.6,0-1.5-.6-.9-6.5-.9-8,4.2-1.8,9.2-7.7,11.1-11.7l2.5,19.7Z"/>
                    <path class="st5" d="M417.8,448.3l-4.3,3.7c-8.9.5-17.5.5-26.4.6-1.1-2.7-4.6-6.9-6.8-8.6,11.1,3.9,21.3,3.7,32.9,3.7,2.4,0,3.4-2.6,4.6.6Z"/>
                    <path class="st0" d="M439.9,428.6c-1.5.7-1.4,3.5-1.8,4.3-1.9,4-6.9,9.9-11.1,11.7,0-1.4-.3-4.9,0-5.8.5-1.5,11.4-8.6,11.4-12.6,1-.1,1.1,1.6,1.5,2.5Z"/>
                    <path class="st14" d="M395.7,338.9c0,.1.5,2.3-.3,3.1s-12.4,5.9-15.4,8c-3.8,2.7-6.8,6.1-10.1,9.2,6.1-9.2,15.2-17,25.8-20.3Z"/>
                    <path class="st14" d="M438,397.3l2.5-32.6c5.6,11.1.9,21.4-2.5,32.6Z"/>
                    <path class="st10" d="M440.5,452.6l-2.5-19.7c.4-.8.3-3.6,1.8-4.3,3.1,6.6,2.3,16.5,2.5,23.7-.3.6-1.3.2-1.8.3Z"/>
                    <path class="st15" d="M448.8,378.8c.7.8,6,9.2,4.9,9.8s-5.6-1.7-5.8-2.2c-.7-1.4.9-5.9.9-7.7Z"/>
                    <path class="st10" d="M418.4,452c-2.6.4-3.4,0-4.9,0l4.3-3.7c.3.9-.5,2.6.6,3.7Z"/>
                  </g>
                  <g>
                    <path class="st14" d="M264.8,377.6c13.9,3.7,25.8,12.5,30.7,26.4s1.5,7.5,2.5,11.1c-.9,1.8-1,3-1.2,4.9-3.9,1.6-6.3,6.1-9.5,8.6-21.1,16.5-52.6,12.7-68.5-9.2s-.7-2.3-1.2-3.1c.5-4.2,1.2-7.6,2.5-11.7,4.3-13.4,16.5-24.8,30.7-27s9.9.6,14.1,0Z"/>
                    <path class="st10" d="M250.7,377.6c-14.2,2.2-26.5,13.6-30.7,27l-4.6,7.4-7.1-15.1c-2.3,18.3-1.5,37.1,3.1,55-4.7,1.2-9.4.7-14.1,0-9.7-30.7-11.9-66.4-1.2-97.1,13.4,14.1,35.9,20.1,54.7,22.7Z"/>
                    <path class="st10" d="M317.6,452.6c-3.8.6-9.7.1-13.5-.6,4-18.1,4.4-36.5,3.1-55l-7.1,14.4-4.6-7.4c-5-13.9-16.8-22.7-30.7-26.4,17.4-2.7,42.1-8.9,54.7-22.1,10.4,31.3,8,65.9-1.8,97.1Z"/>
                    <path class="st10" d="M296.7,420c-.5,4.5,1,31.4-1.5,32.6h-74.9l-1.5-33.2c15.9,21.9,47.4,25.7,68.5,9.2,3.2-2.5,5.7-7,9.5-8.6Z"/>
                    <path class="st14" d="M341.6,239.4c.2-2.2-.2-8.8-.6-11.1-.6-3.4-4-12.7-6.8-14.7,4.9-.6-3.4-6.5-4.6-6.8-13.1-2.4-36.7,22.1-43.6,32.6-17-9.5-40-9.2-57.1,0-6.8-10.6-30.4-35.2-43.6-32.6s-8.2,5.2-4.6,7.4c-2.6,2.3-5.5,9.4-6.1,12.9s-1.1,10.3-.6,13.5c-3.1-8.7-2.8-23.2,2.5-31,13.3-19.8,43,9.2,51.3,21.8,17.7-10.8,42.5-10.2,60.2,0,6.2-11.7,32.1-34.6,45.5-27,9.3,5.3,12.4,25.5,8.3,35Z"/>
                    <path class="st16" d="M320.7,329.1c-16,41.8-108.2,42.4-125.9.6-.2-8.2.4-16.3,3.4-24,.8,32.4,36.3,53.5,66.3,51,23.6-2,53.2-25.6,52.2-51l4,23.3Z"/>
                    <path class="st16" d="M321.9,353c-1.9-.5-2.2,2.2-2.5,2.5-12.5,13.2-37.3,19.4-54.7,22.1-4.2.6-9.9-.6-14.1,0-18.7-2.6-41.3-8.6-54.7-22.7s-1.5-2.3-2.5-3.1c.4-.9,2.1-5.5,2.8-5.5,33.5,32.1,88.2,32.1,122.3.6,1.8-.1,2.8,4.8,3.4,6.1Z"/>
                    <path class="st15" d="M341,228.3c.4,2.3.9,8.9.6,11.1-1.3,11.6-13,22.4-24.3,24.6-2.7-5.2-5-11.1-7.7-16.6,1.7-1.7.6-6,1.2-8.3,1.9-6.7,12.8-19.2,20.6-18.1s6.5,5.8,9.5,7.4Z"/>
                    <path class="st15" d="M205.2,247.4c-1.3,2.6-5.6,14.4-6.1,15.1-2.3,2.6-11.5-2.3-13.8-4-4.9-3.5-10.4-11.7-11.4-17.8s0-10.2.6-13.5c3.7-.5,4.4-5.5,8.9-6.1,7.8-1.1,14.6,7.8,18.7,13.2l3.1,13.2Z"/>
                    <path class="st14" d="M196,354.9c-10.7,30.7-8.4,66.3,1.2,97.1-1.3-.2-2.1,1.7-3.7-.3-9.2-29-12.7-71.5,0-99.8.9.8,1.6,2.2,2.5,3.1Z"/>
                    <path class="st14" d="M321.9,353c10.3,23.6,9.8,69.5,1.2,93.7-1.6,4.6-.8,5.2-5.5,5.8,9.8-31.1,12.3-65.7,1.8-97.1.2-.2.5-2.9,2.5-2.5Z"/>
                    <path class="st4" d="M331.8,213c.4.2,2.3.5,2.5.6,2.8,2,6.1,11.3,6.8,14.7-3-1.6-5.7-6.8-9.5-7.4-7.8-1.1-18.7,11.4-20.6,18.1s.5,6.5-1.2,8.3c-3.8-7.8-6.7-5-1.8-14.4s14.5-18.7,24-20Z"/>
                    <path class="st16" d="M304.1,452c-1.4-.3-2.1,1.1-3.1-.3,2.2-12.9,1.6-26.1-1.2-38.7-1-.4-1.5,1.4-1.8,2.2-1-3.6-1.2-7.6-2.5-11.1l4.6,7.4,7.1-14.4c1.4,18.4.9,36.9-3.1,55Z"/>
                    <path class="st16" d="M220,404.6c-1.3,4.1-2,7.4-2.5,11.7-.5-.8-.3-3.1-2.2-3.1-3.3,12.5-3.5,25.7-1.5,38.4-1,1.6-1.4,0-2.5.3-4.6-17.9-5.3-36.7-3.1-55l7.1,15.1,4.6-7.4Z"/>
                    <path class="st4" d="M205.2,247.4l-3.1-13.2c-4.1-5.4-11-14.3-18.7-13.2s-5.2,5.6-8.9,6.1c.6-3.5,3.5-10.6,6.1-12.9s1.7-1.6,2.5-1.8c9.6,3,18.4,10.5,23.3,19.4,5.8,10.3,2.9,7.1-1.2,15.7Z"/>
                    <path class="st14" d="M312.7,286.7l-6.8-23.7c0-3.5-10.2-14.9-10.4-16s1.1-3.9,1.2-5.2c11.8,12.7,13.4,28.6,16,44.8Z"/>
                    <path class="st14" d="M202.8,282.4c1.9-11.5,3.3-20.4,8.6-31s6.1-7.7,6.8-9.5c4.1,6.3-7.1,13.3-8.6,20l-6.8,20.6Z"/>
                    <g>
                      <path class="st10" d="M334.2,213.6c-.2-.1-2-.4-2.5-.6-10.8-4.1-25.8,9.4-31.3,18.1-3,4.8-3.1,5.8-3.7,10.8s-1.6,3.7-1.2,5.2,10.4,12.5,10.4,16l6.8,23.7c2.1,12.7,1.6,7.3,6.1,16.9s5.8,15.2,1.8,25.5l-4-23.3c1,25.4-28.6,49-52.2,51-30,2.5-65.6-18.6-66.3-51-3,7.7-3.6,15.8-3.4,24-3.9-9.1-3.4-17.1,1.2-26.1,1.1-2.1,5.7-6.2,6.1-8,.7-3,0-9.3.6-13.2l6.8-20.6c1.5-6.7,12.7-13.7,8.6-20,2.1-5.6-10.4-19.8-15.1-23.3s-13.2-8.5-20-6.1-1.8,1.3-2.5,1.8c-3.6-2.2,2.9-7,4.6-7.4,13.2-2.6,36.9,21.9,43.6,32.6,17.1-9.2,40.2-9.5,57.1,0,6.9-10.4,30.5-35,43.6-32.6s9.5,6.1,4.6,6.8Z"/>
                      <path class="st11" d="M286.3,335.8c-6.7,14-32,9-26.4-4s6.8-3.3,8.3-4.6c28.2-23.9-44.7-27.3-23.7-2.2,2.3,2.8,10.2,6.2,10.4,6.8,5.3,12.9-19.7,17.9-26.4,4-8.7-17.9,9.7-36.2,27.3-36.9s39.7,17.5,30.4,36.9Z"/>
                      <path class="st1" d="M286.3,335.8c-1.2,9.7-9.7,14.1-18.7,12.9-2.6-.4-9.9-4.9-10.4-4.9s-6,3.8-8,4.3c-9.8,2.3-19-1.7-20.6-12.3,6.8,13.9,31.7,8.9,26.4-4s-8.1-4-10.4-6.8c-21-25.2,51.9-21.7,23.7,2.2-1.5,1.3-8.1,4.2-8.3,4.6-5.6,13,19.7,18,26.4,4Z"/>
                      <g>
                        <path class="st1" d="M286,260.9c14.9-2.4,15.6,31.5,3.7,33.8-15.4,3-15.9-31.8-3.7-33.8Z"/>
                        <path class="st8" d="M284.8,265.8c6.1-.9,5.9,11.7-.6,11.1-4.1-1.7-3.2-10.5.6-11.1Z"/>
                      </g>
                      <g>
                        <path class="st1" d="M225.8,260.9c17.6-2.9,14.4,42.5-3.1,32.6-8.6-4.9-7.3-30.8,3.1-32.6Z"/>
                        <path class="st8" d="M228.9,265.8c5.6-1.1,6.8,11.7,0,11.1-4.5-1.8-3.7-10.3,0-11.1Z"/>
                      </g>
                    </g>
                  </g>
                </g>
              </g>
            </g>
          </g>
          <g>
            <path class="st16" d="M428.2,429.2c-26.4,24-87.9-9.3-82.9-45.5l11.1-11.4c-9.2,16.9,3.4,44.4,19.4,53.1,16.6,9.1,47.5,6.6,57.1-11.7l-4.6,15.4Z"/>
            <path class="st15" d="M382.8,338.9c-6.1,3.9-7.2,8.8-12.3.9s-4-14.8,0-21.8c1.3-2.2,2.5-3.2,4.3-4.9,11.4-5,15.9,7.1,13.5,16.3-1,3.9-4.7,5.8-5.5,9.5Z"/>
            <path class="st14" d="M430.1,345.1c2.5,4.2,5,8.7,7.4,12.9s.9,2.8,1.2,3.7c-8.2-11.2-22.2-18.2-35.6-20.6,1.4-8.2-5.9-40.1-17.5-37.2s-1.2,1.9-1.5,2.5c-2.6.4-7.3,4.9-9.2,6.8s-3,2.7-4.3,4.9c15.3-35.4,35.7-7.6,35,17.5,8.8,1.6,17.5,3.7,24.6,9.5Z"/>
            <path class="st4" d="M385.2,306.4c6.2,5.4,8.2,17,6.8,24.9s-5.2,5.1-9.2,7.7c.8-3.7,4.5-5.6,5.5-9.5,2.4-9.2-2.2-21.3-13.5-16.3,2-1.9,6.6-6.4,9.2-6.8s.8,0,1.2,0Z"/>
            <g>
              <path class="st10" d="M438.7,361.6c1.1,1.5,1,1.5,1.8,3.1l-2.5,32.6c-.6,2-3.6,7.1-3.7,8.3-1.1,10.1,4.7,13.8-6.1,23.7l4.6-15.4c-9.7,18.3-40.5,20.8-57.1,11.7-16-8.8-28.5-36.2-19.4-53.1l-11.1,11.4c1.8-12.9,11.4-12,18.1-16.6,1.7-1.2,4-5.7,6.5-8s6.4-6.5,10.1-9.2c2.9-2.1,14.7-7.3,15.4-8s.3-2.9.3-3.1c3.2-8.3.7-32.3-10.4-32.6-.4,0-.8,0-1.2,0,.4-.6.8-2.3,1.5-2.5,11.6-3,18.9,29,17.5,37.2,13.4,2.4,27.5,9.3,35.6,20.6Z"/>
              <path class="st11" d="M403.6,421.8c-4.6,4.6-18.8.4-19-5.8-.3-8.4,14.2-2.8,17.2-10.4,3.9-9.9-28.1-23.8-22.1-3.1s4.2,5.8,4.3,6.1c.2.9-2,5.6-2.8,5.8-6.6,2.5-14.8-4.6-15.1-11.7-.2-6.6,5-13.3,11.4-15.4,21.1-6.9,42.4,17.4,26.1,34.4Z"/>
              <path class="st1" d="M403.6,421.8c-4.7,4.9-9.5,6.4-15.7,3.1s-6.3-7.2-6.8-7.4-4.8.7-7.4,0-6.2-3.7-7.1-5.2-3.1-8.8-.6-9.5c.2,7.1,8.4,14.2,15.1,11.7s2.9-4.9,2.8-5.8-3.7-4.1-4.3-6.1c-6-20.7,26-6.9,22.1,3.1-3,7.7-17.5,2.1-17.2,10.4.3,6.2,14.4,10.4,19,5.8Z"/>
              <g>
                <path class="st1" d="M426.1,373.9c13.6-2.2,5.2,25.2-6.1,23.3s-1.5-22.1,6.1-23.3Z"/>
                <path class="st8" d="M424.8,377c5.7-1.3,3.2,8.1-1.2,6.8s-.8-6.3,1.2-6.8Z"/>
              </g>
              <g>
                <path class="st1" d="M389.2,353.7c12.4-.6,3.1,24.9-8,22.7-9.7-1.9-.5-22.3,8-22.7Z"/>
                <path class="st8" d="M389.8,358c4.6-1.1,4,5.9.9,7.1-4.9,1.9-4.3-6.3-.9-7.1Z"/>
              </g>
            </g>
          </g>
        </g>
      </g>
    </g>
  </g>
  <path class="st2" d="M494.8,429l-134.9-239.8c-44.5,119.2-130.6,218.3-242.5,279h354.4c14.5,0,26.3-11.8,26.3-26.3h0c0-4.5-1.2-9-3.4-12.9Z"/>
  <g>
    <path class="st7" d="M199.3,343.6h-16.6v24.9h-14.5l14.5-64.6-16.6-3.7-16.6,74.7c-.6,2.5,0,5.1,1.7,7.1,1.6,2,4.1,3.1,6.6,3.1h24.9v16.6h16.6v-16.6h8.3v-16.6h-8.3v-24.9Z"/>
    <path class="st7" d="M257.4,302.1c-18.3,0-33.2,14.9-33.2,33.2v33.2c0,18.3,14.9,33.2,33.2,33.2s33.2-14.9,33.2-33.2v-33.2c0-18.3-14.9-33.2-33.2-33.2ZM274,368.5c0,9.2-7.4,16.6-16.6,16.6s-16.6-7.4-16.6-16.6v-33.2c0-9.2,7.4-16.6,16.6-16.6s16.6,7.4,16.6,16.6v33.2Z"/>
    <path class="st7" d="M365.4,368.5h-8.3v-24.9h-16.6v24.9h-14.5l14.5-64.6-16.6-3.7-16.6,74.7c-.6,2.5,0,5.1,1.7,7.1,1.6,2,4.1,3.1,6.6,3.1h24.9v16.6h16.6v-16.6h8.3v-16.6h0Z"/>
    <rect class="st7" x="249.1" y="144.3" width="16.6" height="83"/>
    <rect class="st7" x="249.1" y="244" width="16.6" height="16.6"/>
  </g>
  <path class="st6" d="M289.1,46.1c-9.7-17-31.3-23-48.3-13.4-5.6,3.2-10.2,7.8-13.4,13.4L12.8,424.9c-2.8,5.1-4.4,10.8-4.5,16.6-.2,19.1,15.1,34.8,34.2,35h429.4c19.1,0,34.6-15.4,34.6-34.5,0-6-1.5-11.9-4.5-17.1L289.1,46.1ZM471.9,459.9H42.9c-9.9,0-18-8.1-18-18,0-3.1.8-6.1,2.3-8.8L241.8,54.2c5.1-9,16.5-12.2,25.6-7.2,3,1.7,5.5,4.2,7.2,7.2l213.1,378.8c4.9,8.7,1.8,19.7-6.9,24.5-2.7,1.5-5.7,2.3-8.8,2.3Z"/>
  <path class="st6" d="M199.3,343.6h-16.6v24.9h-14.5l14.5-64.6-16.6-3.7-16.6,74.7c-.6,2.5,0,5.1,1.7,7.1,1.6,2,4.1,3.1,6.6,3.1h24.9v16.6h16.6v-16.6h8.3v-16.6h-8.3v-24.9Z"/>
  <path class="st6" d="M257.4,302.1c-18.3,0-33.2,14.9-33.2,33.2v33.2c0,18.3,14.9,33.2,33.2,33.2s33.2-14.9,33.2-33.2v-33.2c0-18.3-14.9-33.2-33.2-33.2ZM274,368.5c0,9.2-7.4,16.6-16.6,16.6s-16.6-7.4-16.6-16.6v-33.2c0-9.2,7.4-16.6,16.6-16.6s16.6,7.4,16.6,16.6v33.2Z"/>
  <path class="st6" d="M357.1,343.6h-16.6v24.9h-14.5l14.5-64.6-16.6-3.7-16.6,74.7c-.6,2.5,0,5.1,1.7,7.1,1.6,2,4.1,3.1,6.6,3.1h24.9v16.6h16.6v-16.6h8.3v-16.6h-8.3v-24.9h0Z"/>
  <rect class="st6" x="249.1" y="144.3" width="16.6" height="83"/>
  <rect class="st6" x="249.1" y="244" width="16.6" height="16.6"/>
</svg>